<svg width="600" height="431" viewBox="0 0 600 431" fill="none" xmlns="http://www.w3.org/2000/svg">
<path opacity="0.1" d="M300 430.852C465.685 430.852 600 414.525 600 394.385C600 374.245 465.685 357.918 300 357.918C134.315 357.918 0 374.245 0 394.385C0 414.525 134.315 430.852 300 430.852Z" fill="#FFBC31"/>
<path d="M513.322 412.261C513.322 412.261 528.966 392.351 527.699 372.596C527.117 364.314 529.235 356.066 533.737 349.089C535.904 345.797 538.365 342.707 541.089 339.859" stroke="#535461" stroke-width="2" stroke-miterlimit="10"/>
<path d="M540.37 327.408C539.265 330.172 541.073 340.186 541.073 340.186C541.073 340.186 549.279 334.17 550.379 331.401C550.642 330.744 550.772 330.041 550.762 329.334C550.753 328.626 550.605 327.927 550.325 327.277C550.046 326.627 549.641 326.039 549.134 325.545C548.628 325.051 548.029 324.662 547.371 324.4C546.714 324.138 546.012 324.008 545.304 324.017C544.597 324.026 543.898 324.175 543.248 324.454C542.598 324.733 542.009 325.138 541.515 325.645C541.022 326.152 540.633 326.751 540.37 327.408Z" fill="#FFBC31"/>
<path d="M525.982 339.424C526.556 342.343 533.495 349.766 533.495 349.766C533.495 349.766 537.113 340.256 536.538 337.331C536.261 335.928 535.437 334.693 534.249 333.898C533.061 333.102 531.606 332.811 530.203 333.089C528.8 333.366 527.565 334.19 526.77 335.378C525.974 336.566 525.683 338.021 525.961 339.424H525.982Z" fill="#FFBC31"/>
<path d="M515.898 365.737C517.873 367.97 527.63 370.862 527.63 370.862C527.63 370.862 525.95 360.826 523.975 358.594C523.028 357.523 521.694 356.872 520.267 356.784C518.84 356.697 517.436 357.18 516.365 358.127C515.294 359.074 514.643 360.408 514.555 361.835C514.468 363.262 514.951 364.666 515.898 365.737Z" fill="#FFBC31"/>
<path d="M512.758 387.365C514.326 389.898 523.449 394.401 523.449 394.401C523.449 394.401 523.492 384.204 521.925 381.692C521.173 380.477 519.968 379.61 518.577 379.282C517.185 378.955 515.721 379.193 514.505 379.945C513.29 380.698 512.423 381.902 512.095 383.293C511.768 384.685 512.006 386.149 512.758 387.365Z" fill="#FFBC31"/>
<path d="M543.816 354.499C541.063 355.632 531.027 353.962 531.027 353.962C531.027 353.962 536.93 345.687 539.705 344.555C541.026 344.009 542.51 344.012 543.83 344.561C545.15 345.11 546.198 346.161 546.743 347.482C547.288 348.804 547.286 350.288 546.737 351.608C546.188 352.928 545.137 353.975 543.816 354.521V354.499Z" fill="#FFBC31"/>
<path d="M539.817 379.744C536.855 380.007 527.785 375.392 527.785 375.392C527.785 375.392 535.911 369.268 538.878 369.005C540.302 368.881 541.716 369.327 542.811 370.245C543.905 371.164 544.59 372.479 544.715 373.903C544.839 375.326 544.393 376.74 543.475 377.835C542.556 378.929 541.241 379.614 539.817 379.739V379.744Z" fill="#FFBC31"/>
<path d="M532.567 403.755C529.685 404.512 519.966 401.496 519.966 401.496C519.966 401.496 526.943 394.084 529.825 393.327C531.207 392.964 532.678 393.164 533.913 393.885C535.148 394.606 536.046 395.787 536.41 397.17C536.773 398.553 536.573 400.023 535.852 401.258C535.132 402.493 533.95 403.391 532.567 403.755Z" fill="#FFBC31"/>
<path opacity="0.25" d="M540.37 327.408C539.265 330.172 541.073 340.186 541.073 340.186C541.073 340.186 549.279 334.17 550.379 331.401C550.642 330.744 550.772 330.041 550.762 329.334C550.753 328.626 550.605 327.927 550.325 327.277C550.046 326.627 549.641 326.039 549.134 325.545C548.628 325.051 548.029 324.662 547.371 324.4C546.714 324.138 546.012 324.008 545.304 324.017C544.597 324.026 543.898 324.175 543.248 324.454C542.598 324.733 542.009 325.138 541.515 325.645C541.022 326.152 540.633 326.751 540.37 327.408Z" fill="black"/>
<path opacity="0.25" d="M525.982 339.424C526.556 342.343 533.495 349.766 533.495 349.766C533.495 349.766 537.113 340.256 536.538 337.331C536.261 335.928 535.437 334.693 534.249 333.898C533.061 333.102 531.606 332.811 530.203 333.089C528.8 333.366 527.565 334.19 526.77 335.378C525.974 336.566 525.683 338.021 525.961 339.424H525.982Z" fill="black"/>
<path opacity="0.25" d="M515.898 365.737C517.873 367.97 527.63 370.862 527.63 370.862C527.63 370.862 525.95 360.826 523.975 358.594C523.028 357.523 521.694 356.872 520.267 356.784C518.84 356.697 517.436 357.18 516.365 358.127C515.294 359.074 514.643 360.408 514.555 361.835C514.468 363.262 514.951 364.666 515.898 365.737Z" fill="black"/>
<path opacity="0.25" d="M512.758 387.365C514.326 389.898 523.449 394.401 523.449 394.401C523.449 394.401 523.492 384.204 521.925 381.692C521.173 380.477 519.968 379.61 518.577 379.282C517.185 378.955 515.721 379.193 514.505 379.945C513.29 380.698 512.423 381.902 512.095 383.293C511.768 384.685 512.006 386.149 512.758 387.365Z" fill="black"/>
<path opacity="0.25" d="M543.816 354.499C541.063 355.632 531.027 353.962 531.027 353.962C531.027 353.962 536.93 345.687 539.705 344.555C541.026 344.009 542.51 344.012 543.83 344.561C545.15 345.11 546.198 346.161 546.743 347.482C547.288 348.804 547.286 350.288 546.737 351.608C546.188 352.928 545.137 353.975 543.816 354.521V354.499Z" fill="black"/>
<path opacity="0.25" d="M539.817 379.744C536.855 380.007 527.785 375.392 527.785 375.392C527.785 375.392 535.911 369.268 538.878 369.005C540.302 368.881 541.716 369.327 542.811 370.245C543.905 371.164 544.59 372.479 544.715 373.903C544.839 375.326 544.393 376.74 543.475 377.835C542.556 378.929 541.241 379.614 539.817 379.739V379.744Z" fill="black"/>
<path opacity="0.25" d="M532.567 403.755C529.685 404.512 519.966 401.496 519.966 401.496C519.966 401.496 526.943 394.084 529.825 393.327C531.207 392.964 532.678 393.164 533.913 393.885C535.148 394.606 536.046 395.787 536.41 397.17C536.773 398.553 536.573 400.023 535.852 401.258C535.132 402.493 533.95 403.391 532.567 403.755Z" fill="black"/>
<path d="M513.451 411.429C513.451 411.429 535.825 399.569 542.673 381C545.491 373.194 550.764 366.511 557.699 361.954C561.014 359.819 564.517 357.992 568.165 356.496" stroke="#535461" stroke-width="2" stroke-miterlimit="10"/>
<path d="M572.565 344.818C570.419 346.9 568.03 356.785 568.03 356.785C568.03 356.785 577.97 354.606 580.1 352.53C580.607 352.036 581.011 351.448 581.29 350.798C581.569 350.149 581.717 349.451 581.726 348.744C581.736 348.037 581.606 347.335 581.344 346.678C581.082 346.022 580.693 345.423 580.199 344.917C579.706 344.41 579.118 344.006 578.468 343.727C577.819 343.448 577.121 343.3 576.414 343.291C574.986 343.272 573.609 343.821 572.587 344.818H572.565Z" fill="#FFBC31"/>
<path d="M554.544 349.97C553.889 352.873 557.227 362.485 557.227 362.485C557.227 362.485 564.386 355.25 565.041 352.347C565.356 350.953 565.105 349.491 564.342 348.282C563.579 347.073 562.367 346.217 560.973 345.902C559.579 345.586 558.117 345.838 556.908 346.601C555.699 347.364 554.843 348.575 554.528 349.97H554.544Z" fill="#FFBC31"/>
<path d="M534.665 369.945C535.562 372.784 543.311 379.385 543.311 379.385C543.311 379.385 545.839 369.526 544.921 366.687C544.707 366.012 544.363 365.386 543.907 364.844C543.451 364.303 542.893 363.856 542.264 363.53C541.636 363.204 540.95 363.006 540.244 362.945C539.539 362.884 538.829 362.963 538.154 363.177C537.479 363.391 536.853 363.736 536.311 364.192C535.77 364.647 535.323 365.205 534.997 365.834C534.671 366.462 534.472 367.149 534.412 367.854C534.351 368.559 534.43 369.27 534.644 369.945H534.665Z" fill="#FFBC31"/>
<path d="M523.025 388.444C523.433 391.395 529.953 399.209 529.953 399.209C529.953 399.209 534.113 389.92 533.71 386.973C533.614 386.272 533.38 385.597 533.022 384.986C532.665 384.375 532.19 383.84 531.626 383.413C531.062 382.985 530.419 382.673 529.735 382.494C529.05 382.314 528.336 382.272 527.635 382.369C526.934 382.465 526.258 382.699 525.648 383.056C525.037 383.414 524.502 383.888 524.075 384.452C523.647 385.017 523.335 385.659 523.156 386.344C522.976 387.029 522.934 387.742 523.03 388.444H523.025Z" fill="#FFBC31"/>
<path d="M564.741 370.98C561.762 370.905 553.272 365.292 553.272 365.292C553.272 365.292 562.046 360.129 565.02 360.204C566.449 360.241 567.804 360.844 568.789 361.881C569.773 362.917 570.305 364.303 570.268 365.732C570.231 367.161 569.628 368.516 568.591 369.501C567.555 370.485 566.17 371.017 564.741 370.98Z" fill="#FFBC31"/>
<path d="M550.857 392.442C548.039 391.481 541.615 383.587 541.615 383.587C541.615 383.587 551.528 381.279 554.345 382.245C555.015 382.474 555.633 382.833 556.164 383.301C556.694 383.768 557.128 384.336 557.439 384.972C557.751 385.607 557.934 386.298 557.979 387.004C558.023 387.71 557.928 388.418 557.699 389.088C557.47 389.757 557.112 390.375 556.644 390.906C556.176 391.437 555.608 391.87 554.973 392.182C554.337 392.493 553.647 392.677 552.941 392.721C552.234 392.766 551.526 392.671 550.857 392.442Z" fill="#FFBC31"/>
<path d="M534.494 411.451C531.558 410.979 523.894 404.281 523.894 404.281C523.894 404.281 533.275 400.336 536.238 400.809C537.649 401.036 538.912 401.815 539.749 402.974C540.586 404.133 540.928 405.577 540.7 406.988C540.473 408.4 539.694 409.663 538.535 410.499C537.376 411.336 535.932 411.679 534.521 411.451H534.494Z" fill="#FFBC31"/>
<path opacity="0.1" d="M341.936 51.0268C312.29 49.9964 284.055 40.4275 257.098 29.9571C230.141 19.4866 203.431 7.88372 174.494 2.36673C155.887 -1.20215 134.603 -1.70662 119.608 8.27012C105.188 17.8444 100.519 34.4168 98.0125 49.7979C96.1234 61.3685 95.0125 73.5456 100.159 84.3757C103.75 91.8891 110.12 98.2218 114.526 105.424C129.853 130.487 119.018 161.394 102.408 185.871C94.6154 197.351 85.5778 208.299 79.5617 220.524C73.5456 232.75 70.771 246.746 76.0304 259.213C81.2469 271.556 93.6708 280.852 107.131 287.377C134.469 300.639 166.701 304.433 198.102 306.58C267.644 311.34 337.556 309.263 407.281 307.213C433.089 306.451 459.005 305.678 484.39 301.691C498.488 299.474 513.043 295.953 523.272 287.463C536.265 276.687 539.485 258.435 530.785 244.921C516.182 222.252 475.809 216.623 465.601 192.295C459.987 178.905 465.757 163.991 473.919 151.572C491.431 124.927 520.787 101.555 522.338 71.1038C523.411 50.1735 509.286 29.2433 487.454 19.347C464.581 8.97853 432.864 10.2826 415.991 27.4508C398.646 45.1342 368.109 51.9338 341.936 51.0268Z" fill="#FFBC31"/>
<path d="M318.247 169.873H304.9C304.909 168.843 304.973 167.815 305.093 166.792C305.512 163.154 306.8 157.25 310.792 154.481C314.522 151.894 319.379 155.796 317.474 159.923L317.426 160.036C316.712 161.528 316.69 163.385 316.927 165.086C317.177 166.728 317.62 168.335 318.247 169.873Z" fill="#FFBC31"/>
<path opacity="0.1" d="M318.247 169.873H304.9C304.909 168.843 304.973 167.815 305.093 166.793C308.86 165.38 312.887 164.798 316.9 165.086C317.159 166.729 317.611 168.336 318.247 169.873Z" fill="black"/>
<path d="M326.903 184.004C323.442 186.821 318.601 186.864 313.648 185.657C303.504 183.177 292.916 175.417 292.916 175.417C293.637 174.617 294.411 173.868 295.234 173.174C299.41 169.589 308.979 163.25 321.789 166.401C324.922 167.12 327.681 168.965 329.544 171.585C331.664 174.687 332.769 179.233 326.903 184.004Z" fill="#FFBC31"/>
<path opacity="0.1" d="M322.825 178.352C322.825 178.352 315.107 171.778 304.476 180.499L322.825 178.352Z" fill="black"/>
<path d="M105.8 233.737C105.8 233.737 80.9302 214.599 79.6798 231.95C78.4293 249.301 84.6869 265.583 90.0537 267.011C95.4204 268.438 105.8 233.737 105.8 233.737Z" fill="#FFBC31"/>
<path opacity="0.2" d="M105.8 233.737C105.8 233.737 80.9302 214.599 79.6798 231.95C78.4293 249.301 84.6869 265.583 90.0537 267.011C95.4204 268.438 105.8 233.737 105.8 233.737Z" fill="black"/>
<path opacity="0.1" d="M89.517 239.823C89.517 239.823 90.102 255.789 95.0662 253.24C100.03 250.691 92.737 240.537 89.517 239.823Z" fill="black"/>
<path d="M166.905 369.8C166.32 372.258 165.418 374.631 164.222 376.857C163.916 377.437 163.583 378.032 163.218 378.639C157.363 388.374 143.828 392.415 143.828 390.268C143.828 388.122 142.492 382.572 139.089 384.183C135.687 385.793 130.503 385.438 130.503 385.438C121.138 384.725 122.721 375.494 125.823 367.674C126.855 365.104 128.034 362.596 129.354 360.161C130.524 358.014 131.399 356.608 131.399 356.608L167.179 362.335C167.179 362.335 167.979 365.157 166.905 369.8Z" fill="#FFBC31"/>
<path opacity="0.1" d="M313.648 185.657C303.504 183.177 292.916 175.417 292.916 175.417C293.637 174.617 294.411 173.868 295.234 173.174C296.78 173.989 298.333 174.857 299.893 175.776C304.783 178.623 309.389 181.931 313.648 185.657Z" fill="black"/>
<path opacity="0.1" d="M166.905 369.8C157.197 368.93 143.136 366.542 129.338 360.188C130.508 358.041 131.383 356.635 131.383 356.635L167.163 362.361C167.163 362.361 167.979 365.157 166.905 369.8Z" fill="black"/>
<path d="M317.603 323.361C317.603 323.361 316.959 334.83 310.487 347.791C305.503 357.984 297.815 366.613 288.263 372.735C288.263 372.735 282.542 377.388 282.182 364.508C282.182 364.508 279.676 361.825 262.503 373.551C262.503 373.551 252.14 379.884 254.989 353.463C254.989 353.463 254.989 353.431 254.989 353.415C254.989 353.399 254.732 353.581 254.259 353.866H254.227C253.004 354.617 250.406 356.157 247.315 357.708C241.653 360.553 234.317 363.445 230.678 361.621C229.842 368.308 227.779 374.783 224.592 380.721C220.986 387.284 215.297 393.703 206.388 396.601C204.142 397.321 201.74 397.407 199.448 396.848C197.156 396.289 195.064 395.108 193.401 393.435L192.381 392.415C192.381 392.415 184.508 397.782 180.574 395.989C176.64 394.197 173.415 389.195 178.782 379.889C178.782 379.889 179.066 379.116 179.415 377.984C180.29 375.113 181.562 369.934 179.501 369.156C179.501 369.156 96.1342 373.449 85.0465 299.388C73.9589 225.327 147.301 198.14 168.048 201C168.048 201 223.148 131.592 299.356 176.313C375.564 221.034 317.603 323.361 317.603 323.361Z" fill="#FFBC31"/>
<path opacity="0.1" d="M168.048 201C168.048 201 258.864 200.646 252.633 318.354" stroke="black" stroke-miterlimit="10"/>
<path opacity="0.2" d="M164.222 376.857C163.916 377.437 163.583 378.032 163.218 378.639C157.363 388.374 143.828 392.415 143.828 390.268C143.828 388.122 142.492 382.572 139.089 384.183C135.687 385.793 130.503 385.438 130.503 385.438C121.138 384.725 122.721 375.494 125.823 367.674C134.603 372.081 150.483 378.644 164.222 376.857Z" fill="black"/>
<path opacity="0.2" d="M224.592 380.721C220.986 387.284 215.297 393.703 206.388 396.601C204.142 397.321 201.74 397.407 199.448 396.848C197.156 396.289 195.064 395.108 193.401 393.435L192.381 392.415C192.381 392.415 184.508 397.782 180.574 395.989C176.64 394.197 173.415 389.195 178.782 379.889C178.782 379.889 179.066 379.116 179.415 377.984C186.429 380.458 205.009 385.723 224.592 380.721Z" fill="black"/>
<path opacity="0.1" d="M254.989 353.415C287.367 336.601 292.916 323.184 292.916 323.184L254.989 353.415Z" fill="black"/>
<path opacity="0.2" d="M310.487 347.791C305.503 357.984 297.815 366.612 288.263 372.735C288.263 372.735 282.542 377.388 282.182 364.508C282.182 364.508 279.676 361.825 262.503 373.551C262.503 373.551 252.14 379.884 254.989 353.463L263.576 348.703C282.081 358.991 300.671 352.717 310.487 347.791Z" fill="black"/>
<path d="M177.714 211.379C177.714 211.379 195.961 183.472 209.732 192.236C223.503 201 207.231 233.737 207.231 233.737C207.231 233.737 180.215 233.2 177.714 211.379Z" fill="#FFBC31"/>
<path opacity="0.2" d="M177.714 211.379C177.714 211.379 195.961 183.472 209.732 192.236C223.503 201 207.231 233.737 207.231 233.737C207.231 233.737 180.215 233.2 177.714 211.379Z" fill="black"/>
<path opacity="0.1" d="M207.408 203.683C207.408 203.683 183.435 215.313 190.771 222.113C198.107 228.912 207.408 203.683 207.408 203.683Z" fill="black"/>
<path opacity="0.1" d="M149.625 316.931C167.643 312.771 179.457 297.302 176.012 282.38C172.567 267.457 155.167 258.733 137.149 262.892C119.131 267.052 107.317 282.521 110.762 297.444C114.207 312.366 131.607 321.091 149.625 316.931Z" fill="black"/>
<path d="M149.625 315.858C167.643 311.698 179.457 296.229 176.012 281.307C172.567 266.385 155.167 257.66 137.149 261.82C119.131 265.98 107.317 281.449 110.762 296.371C114.207 311.293 131.607 320.018 149.625 315.858Z" fill="#FFBC31"/>
<path opacity="0.2" d="M149.625 315.858C167.643 311.698 179.457 296.229 176.012 281.307C172.567 266.385 155.167 257.66 137.149 261.82C119.131 265.98 107.317 281.449 110.762 296.371C114.207 311.293 131.607 320.018 149.625 315.858Z" fill="black"/>
<path opacity="0.1" d="M129.231 288.832C129.231 288.832 129.59 299.211 132.633 296.174C135.676 293.136 132.81 288.821 129.231 288.832Z" fill="black"/>
<path opacity="0.1" d="M146.587 280.932C146.587 280.932 146.941 291.311 149.984 288.274C153.027 285.236 150.161 280.9 146.587 280.932Z" fill="black"/>
<path opacity="0.1" d="M175.953 340.358C175.953 340.358 183.435 347.694 192.558 337.497L175.953 340.358Z" fill="black"/>
<path opacity="0.15" d="M208.835 182.93C212.952 181.857 228.156 188.297 228.156 188.297C234.708 181.744 244.256 177.816 252.633 175.481L254.383 167.549C221.157 167.93 208.835 182.93 208.835 182.93Z" fill="black"/>
<path opacity="0.3" d="M254.453 167.549L252.8 175.433C258.725 173.803 264.788 172.725 270.912 172.213C263.039 168.263 254.453 167.549 254.453 167.549Z" fill="black"/>
<path opacity="0.15" d="M254.383 167.549L252.644 175.481L252.81 175.433L254.463 167.549H254.383Z" fill="black"/>
<g opacity="0.1">
<path opacity="0.1" d="M182.538 383.249C182.538 383.249 182.823 382.476 183.172 381.343C184.047 378.472 185.318 373.293 183.258 372.515C183.258 372.515 182.302 372.563 180.574 372.558C180.386 374.449 179.996 376.315 179.41 378.123C179.061 379.256 178.776 380.029 178.776 380.029C173.41 389.335 176.63 394.342 180.569 396.129L180.778 396.204C179.195 393.494 179.066 389.27 182.538 383.249Z" fill="white"/>
<path opacity="0.1" d="M88.8032 302.748C77.7102 228.687 153.419 198.59 174.166 201.472L168.048 201.161C147.301 198.301 73.9535 225.488 85.0465 299.549C88.5349 322.835 99.1717 338.372 112.111 348.735C100.894 338.431 91.9481 323.737 88.8032 302.748Z" fill="white"/>
<path opacity="0.1" d="M258.741 356.823C258.741 356.823 258.741 356.791 258.741 356.775C258.741 356.758 258.483 356.941 258.011 357.225H257.979C257.254 357.665 256.047 358.39 254.544 359.227C254.007 371.436 257.168 374.082 259.653 374.313C258.392 371.463 257.732 366.231 258.741 356.823Z" fill="white"/>
<path opacity="0.1" d="M285.939 367.868C285.939 367.868 285.295 367.186 282.451 368.029C283.191 373.352 285.241 373.932 286.701 373.615C286.201 371.74 285.945 369.808 285.939 367.868Z" fill="white"/>
</g>
<path opacity="0.1" d="M179.501 369.156C179.501 369.156 226.014 366.295 230.662 361.642L179.501 369.156Z" fill="black"/>
<path d="M291.177 378.032C302.31 378.032 311.335 368.452 311.335 356.635C311.335 344.818 302.31 335.238 291.177 335.238C280.044 335.238 271.02 344.818 271.02 356.635C271.02 368.452 280.044 378.032 291.177 378.032Z" fill="#FBD56F"/>
<path opacity="0.1" d="M291.177 378.032C302.31 378.032 311.335 368.452 311.335 356.635C311.335 344.818 302.31 335.238 291.177 335.238C280.044 335.238 271.02 344.818 271.02 356.635C271.02 368.452 280.044 378.032 291.177 378.032Z" fill="black"/>
<path d="M294.655 378.032C305.787 378.032 314.812 368.666 314.812 357.113C314.812 345.559 305.787 336.193 294.655 336.193C283.522 336.193 274.497 345.559 274.497 357.113C274.497 368.666 283.522 378.032 294.655 378.032Z" fill="#FBD56F"/>
<path d="M302.823 376.068L300.725 374.903C300.725 374.903 299.742 378.993 300.064 381.912C300.095 382.206 300.214 382.483 300.405 382.707C300.597 382.932 300.853 383.092 301.138 383.168C305.968 384.365 328.948 389.469 344.759 382.277C344.988 382.173 345.186 382.011 345.333 381.807C345.48 381.602 345.57 381.363 345.596 381.113C345.794 379.32 345.107 375.623 344.834 374.903C344.259 373.352 302.823 376.068 302.823 376.068Z" fill="#FBD56F"/>
<path opacity="0.1" d="M302.823 376.068L300.725 374.903C300.725 374.903 299.742 378.993 300.064 381.912C300.095 382.206 300.214 382.483 300.405 382.707C300.597 382.932 300.853 383.092 301.138 383.168C305.968 384.365 328.948 389.469 344.759 382.277C344.988 382.173 345.186 382.011 345.333 381.807C345.48 381.602 345.57 381.363 345.596 381.113C345.794 379.32 345.107 375.623 344.834 374.903C344.259 373.352 302.823 376.068 302.823 376.068Z" fill="black"/>
<path d="M322.787 379.878C334.972 379.878 344.85 377.651 344.85 374.903C344.85 372.156 334.972 369.928 322.787 369.928C310.602 369.928 300.724 372.156 300.724 374.903C300.724 377.651 310.602 379.878 322.787 379.878Z" fill="#FBD56F"/>
<path d="M311.27 368.732L309.177 367.567C309.177 367.567 308.195 371.657 308.517 374.576C308.547 374.869 308.666 375.146 308.858 375.369C309.05 375.593 309.305 375.752 309.59 375.826C314.42 377.029 337.401 382.132 353.211 374.941C353.44 374.836 353.637 374.674 353.784 374.47C353.931 374.265 354.022 374.026 354.048 373.776C354.242 371.984 353.555 368.286 353.281 367.567C352.685 366.016 311.27 368.732 311.27 368.732Z" fill="#FBD56F"/>
<path opacity="0.1" d="M311.27 368.732L309.177 367.567C309.177 367.567 308.195 371.657 308.517 374.576C308.547 374.869 308.666 375.146 308.858 375.369C309.05 375.593 309.305 375.752 309.59 375.826C314.42 377.029 337.401 382.132 353.211 374.941C353.44 374.836 353.637 374.674 353.784 374.47C353.931 374.265 354.022 374.026 354.048 373.776C354.242 371.984 353.555 368.286 353.281 367.567C352.685 366.016 311.27 368.732 311.27 368.732Z" fill="black"/>
<path d="M331.213 372.542C343.398 372.542 353.276 370.315 353.276 367.567C353.276 364.82 343.398 362.592 331.213 362.592C319.028 362.592 309.15 364.82 309.15 367.567C309.15 370.315 319.028 372.542 331.213 372.542Z" fill="#FBD56F"/>
<path d="M318.703 359.088L316.605 357.923C316.605 357.923 315.623 362.013 315.945 364.932C315.975 365.226 316.094 365.503 316.286 365.727C316.477 365.951 316.733 366.112 317.018 366.188C321.848 367.385 344.834 372.488 360.639 365.297C360.868 365.192 361.066 365.03 361.214 364.826C361.362 364.622 361.454 364.383 361.481 364.132C361.674 362.34 360.988 358.642 360.714 357.923C360.14 356.372 318.703 359.088 318.703 359.088Z" fill="#FBD56F"/>
<path opacity="0.1" d="M318.703 359.088L316.605 357.923C316.605 357.923 315.623 362.013 315.945 364.932C315.975 365.226 316.094 365.503 316.286 365.727C316.477 365.951 316.733 366.112 317.018 366.188C321.848 367.385 344.834 372.488 360.639 365.297C360.868 365.192 361.066 365.03 361.214 364.826C361.362 364.622 361.454 364.383 361.481 364.132C361.674 362.34 360.988 358.642 360.714 357.923C360.14 356.372 318.703 359.088 318.703 359.088Z" fill="black"/>
<path d="M338.667 362.898C350.852 362.898 360.73 360.671 360.73 357.923C360.73 355.176 350.852 352.948 338.667 352.948C326.482 352.948 316.605 355.176 316.605 357.923C316.605 360.671 326.482 362.898 338.667 362.898Z" fill="#FBD56F"/>
<path d="M310.449 349.057L308.351 347.887C308.351 347.887 307.374 351.982 307.691 354.896C307.722 355.19 307.841 355.466 308.032 355.691C308.224 355.915 308.479 356.076 308.764 356.152C313.594 357.349 336.574 362.453 352.379 355.267C352.609 355.163 352.807 355 352.955 354.796C353.103 354.592 353.195 354.353 353.222 354.102C353.415 352.31 352.728 348.612 352.454 347.887C351.886 346.331 310.449 349.057 310.449 349.057Z" fill="#FBD56F"/>
<path opacity="0.1" d="M310.449 349.057L308.351 347.887C308.351 347.887 307.374 351.982 307.691 354.896C307.722 355.19 307.841 355.466 308.032 355.691C308.224 355.915 308.479 356.076 308.764 356.152C313.594 357.349 336.574 362.453 352.379 355.267C352.609 355.163 352.807 355 352.955 354.796C353.103 354.592 353.195 354.353 353.222 354.102C353.415 352.31 352.728 348.612 352.454 347.887C351.886 346.331 310.449 349.057 310.449 349.057Z" fill="black"/>
<path d="M330.413 352.857C342.598 352.857 352.476 350.63 352.476 347.882C352.476 345.134 342.598 342.907 330.413 342.907C318.228 342.907 308.351 345.134 308.351 347.882C308.351 350.63 318.228 352.857 330.413 352.857Z" fill="#FBD56F"/>
<path d="M329.013 341.007L326.919 339.837C326.919 339.837 325.937 343.932 326.259 346.846C326.289 347.14 326.408 347.418 326.6 347.642C326.791 347.866 327.047 348.027 327.333 348.102C332.163 349.299 355.143 354.403 370.948 347.216C371.177 347.112 371.375 346.949 371.523 346.745C371.67 346.541 371.763 346.302 371.791 346.052C371.984 344.259 371.297 340.556 371.023 339.837C370.449 338.276 329.013 341.007 329.013 341.007Z" fill="#FBD56F"/>
<path opacity="0.1" d="M329.013 341.007L326.919 339.837C326.919 339.837 325.937 343.932 326.259 346.846C326.289 347.14 326.408 347.418 326.6 347.642C326.791 347.866 327.047 348.027 327.333 348.102C332.163 349.299 355.143 354.403 370.948 347.216C371.177 347.112 371.375 346.949 371.523 346.745C371.67 346.541 371.763 346.302 371.791 346.052C371.984 344.259 371.297 340.556 371.023 339.837C370.449 338.276 329.013 341.007 329.013 341.007Z" fill="black"/>
<path d="M348.977 344.801C361.162 344.801 371.039 342.574 371.039 339.827C371.039 337.079 361.162 334.852 348.977 334.852C336.792 334.852 326.914 337.079 326.914 339.827C326.914 342.574 336.792 344.801 348.977 344.801Z" fill="#FBD56F"/>
<path d="M316.471 335.581L314.372 334.411C314.372 334.411 313.395 338.506 313.712 341.42C313.743 341.714 313.862 341.991 314.054 342.215C314.246 342.439 314.501 342.6 314.785 342.676C319.615 343.873 342.596 348.977 358.401 341.791C358.63 341.687 358.829 341.524 358.977 341.32C359.124 341.116 359.216 340.877 359.243 340.626C359.437 338.834 358.75 335.131 358.476 334.411C357.907 332.86 316.471 335.581 316.471 335.581Z" fill="#FBD56F"/>
<path opacity="0.1" d="M316.471 335.581L314.372 334.411C314.372 334.411 313.395 338.506 313.712 341.42C313.743 341.714 313.862 341.991 314.054 342.215C314.246 342.439 314.501 342.6 314.785 342.676C319.615 343.873 342.596 348.977 358.401 341.791C358.63 341.687 358.829 341.524 358.977 341.32C359.124 341.116 359.216 340.877 359.243 340.626C359.437 338.834 358.75 335.131 358.476 334.411C357.907 332.86 316.471 335.581 316.471 335.581Z" fill="black"/>
<path d="M336.435 339.386C348.62 339.386 358.497 337.159 358.497 334.411C358.497 331.664 348.62 329.437 336.435 329.437C324.25 329.437 314.372 331.664 314.372 334.411C314.372 337.159 324.25 339.386 336.435 339.386Z" fill="#FBD56F"/>
<path d="M324.843 325.127L322.75 323.957C322.75 323.957 321.767 328.052 322.089 330.966C322.119 331.26 322.238 331.537 322.43 331.762C322.621 331.986 322.877 332.147 323.163 332.222C327.993 333.419 350.973 338.522 366.784 331.336C367.012 331.232 367.21 331.07 367.357 330.865C367.504 330.661 367.595 330.422 367.621 330.172C367.814 328.379 367.127 324.682 366.853 323.957C366.284 322.406 324.843 325.127 324.843 325.127Z" fill="#FBD56F"/>
<path opacity="0.1" d="M324.843 325.127L322.75 323.957C322.75 323.957 321.767 328.052 322.089 330.966C322.119 331.26 322.238 331.537 322.43 331.762C322.621 331.986 322.877 332.147 323.163 332.222C327.993 333.419 350.973 338.522 366.784 331.336C367.012 331.232 367.21 331.07 367.357 330.865C367.504 330.661 367.595 330.422 367.621 330.172C367.814 328.379 367.127 324.682 366.853 323.957C366.284 322.406 324.843 325.127 324.843 325.127Z" fill="black"/>
<path d="M344.812 328.932C356.997 328.932 366.875 326.705 366.875 323.957C366.875 321.21 356.997 318.982 344.812 318.982C332.627 318.982 322.75 321.21 322.75 323.957C322.75 326.705 332.627 328.932 344.812 328.932Z" fill="#FBD56F"/>
<path d="M328.98 312.719L326.882 311.549C326.882 311.549 325.905 315.644 326.222 318.558C326.253 318.851 326.372 319.128 326.564 319.353C326.755 319.577 327.01 319.738 327.295 319.814C332.125 321.011 355.106 326.115 370.911 318.928C371.14 318.824 371.339 318.662 371.486 318.458C371.634 318.254 371.726 318.015 371.753 317.764C371.946 315.971 371.259 312.274 370.986 311.549C370.411 309.998 328.98 312.719 328.98 312.719Z" fill="#FBD56F"/>
<path opacity="0.1" d="M328.98 312.719L326.882 311.549C326.882 311.549 325.905 315.644 326.222 318.558C326.253 318.851 326.372 319.128 326.564 319.353C326.755 319.577 327.01 319.738 327.295 319.814C332.125 321.011 355.106 326.115 370.911 318.928C371.14 318.824 371.339 318.662 371.486 318.458C371.634 318.254 371.726 318.015 371.753 317.764C371.946 315.971 371.259 312.274 370.986 311.549C370.411 309.998 328.98 312.719 328.98 312.719Z" fill="black"/>
<path d="M348.939 316.524C361.124 316.524 371.002 314.297 371.002 311.549C371.002 308.802 361.124 306.574 348.939 306.574C336.754 306.574 326.877 308.802 326.877 311.549C326.877 314.297 336.754 316.524 348.939 316.524Z" fill="#FBD56F"/>
<path d="M366.22 378.95L364.122 377.78C364.122 377.78 363.14 381.875 363.462 384.789C363.492 385.082 363.611 385.36 363.803 385.584C363.994 385.808 364.25 385.969 364.535 386.045C369.365 387.241 392.345 392.345 408.156 385.159C408.385 385.054 408.582 384.89 408.729 384.685C408.876 384.48 408.967 384.24 408.993 383.989C409.191 382.197 408.504 378.499 408.231 377.78C407.657 376.229 366.22 378.95 366.22 378.95Z" fill="#FBD56F"/>
<path opacity="0.1" d="M366.22 378.95L364.122 377.78C364.122 377.78 363.14 381.875 363.462 384.789C363.492 385.082 363.611 385.36 363.803 385.584C363.994 385.808 364.25 385.969 364.535 386.045C369.365 387.241 392.345 392.345 408.156 385.159C408.385 385.054 408.582 384.89 408.729 384.685C408.876 384.48 408.967 384.24 408.993 383.989C409.191 382.197 408.504 378.499 408.231 377.78C407.657 376.229 366.22 378.95 366.22 378.95Z" fill="black"/>
<path d="M386.184 382.755C398.369 382.755 408.247 380.528 408.247 377.78C408.247 375.032 398.369 372.805 386.184 372.805C373.999 372.805 364.122 375.032 364.122 377.78C364.122 380.528 373.999 382.755 386.184 382.755Z" fill="#FBD56F"/>
<path d="M373.669 369.306L371.571 368.136C371.571 368.136 370.594 372.231 370.911 375.145C370.942 375.438 371.061 375.715 371.253 375.939C371.444 376.163 371.699 376.324 371.984 376.401C376.814 377.598 399.794 382.701 415.599 375.515C415.829 375.411 416.027 375.249 416.175 375.045C416.323 374.841 416.415 374.601 416.442 374.351C416.635 372.558 415.948 368.855 415.674 368.136C415.106 366.585 373.669 369.306 373.669 369.306Z" fill="#FBD56F"/>
<path opacity="0.1" d="M373.669 369.306L371.571 368.136C371.571 368.136 370.594 372.231 370.911 375.145C370.942 375.438 371.061 375.715 371.253 375.939C371.444 376.163 371.699 376.324 371.984 376.401C376.814 377.598 399.794 382.701 415.599 375.515C415.829 375.411 416.027 375.249 416.175 375.045C416.323 374.841 416.415 374.601 416.442 374.351C416.635 372.558 415.948 368.855 415.674 368.136C415.106 366.585 373.669 369.306 373.669 369.306Z" fill="black"/>
<path d="M393.633 373.111C405.818 373.111 415.696 370.884 415.696 368.136C415.696 365.388 405.818 363.161 393.633 363.161C381.448 363.161 371.571 365.388 371.571 368.136C371.571 370.884 381.448 373.111 393.633 373.111Z" fill="#FBD56F"/>
<path d="M365.415 359.254L363.322 358.089C363.322 358.089 362.34 362.179 362.662 365.098C362.692 365.391 362.811 365.668 363.003 365.892C363.195 366.115 363.45 366.275 363.735 366.349C368.565 367.551 391.546 372.655 407.356 365.463C407.585 365.359 407.783 365.197 407.93 364.993C408.077 364.789 408.168 364.549 408.193 364.299C408.386 362.506 407.699 358.809 407.426 358.089C406.857 356.571 365.415 359.254 365.415 359.254Z" fill="#FBD56F"/>
<path opacity="0.1" d="M365.415 359.254L363.322 358.089C363.322 358.089 362.34 362.179 362.662 365.098C362.692 365.391 362.811 365.668 363.003 365.892C363.195 366.115 363.45 366.275 363.735 366.349C368.565 367.551 391.546 372.655 407.356 365.463C407.585 365.359 407.783 365.197 407.93 364.993C408.077 364.789 408.168 364.549 408.193 364.299C408.386 362.506 407.699 358.809 407.426 358.089C406.857 356.571 365.415 359.254 365.415 359.254Z" fill="black"/>
<path d="M385.385 363.075C397.569 363.075 407.447 360.848 407.447 358.1C407.447 355.353 397.569 353.125 385.385 353.125C373.2 353.125 363.322 355.353 363.322 358.1C363.322 360.848 373.2 363.075 385.385 363.075Z" fill="#FBD56F"/>
<path d="M383.984 351.204L381.886 350.039C381.886 350.039 380.903 354.129 381.225 357.016C381.255 357.31 381.374 357.588 381.566 357.812C381.757 358.036 382.013 358.197 382.299 358.272C387.129 359.474 410.109 364.572 425.92 357.386C426.149 357.283 426.347 357.12 426.494 356.916C426.641 356.712 426.731 356.472 426.757 356.222C426.95 354.429 426.268 350.732 425.995 350.013C425.42 348.521 383.984 351.204 383.984 351.204Z" fill="#FBD56F"/>
<path opacity="0.1" d="M383.984 351.204L381.886 350.039C381.886 350.039 380.903 354.129 381.225 357.016C381.255 357.31 381.374 357.588 381.566 357.812C381.757 358.036 382.013 358.197 382.299 358.272C387.129 359.474 410.109 364.572 425.92 357.386C426.149 357.283 426.347 357.12 426.494 356.916C426.641 356.712 426.731 356.472 426.757 356.222C426.95 354.429 426.268 350.732 425.995 350.013C425.42 348.521 383.984 351.204 383.984 351.204Z" fill="black"/>
<path d="M403.948 355.02C416.133 355.02 426.011 352.792 426.011 350.045C426.011 347.297 416.133 345.07 403.948 345.07C391.763 345.07 381.886 347.297 381.886 350.045C381.886 352.792 391.763 355.02 403.948 355.02Z" fill="#FBD56F"/>
<path d="M371.436 345.794L369.343 344.63C369.343 344.63 368.361 348.719 368.683 351.639C368.714 351.931 368.833 352.208 369.025 352.431C369.217 352.655 369.472 352.814 369.757 352.889C374.587 354.091 397.567 359.19 413.377 352.004C413.607 351.9 413.805 351.737 413.952 351.533C414.098 351.329 414.189 351.089 414.215 350.839C414.408 349.047 413.721 345.349 413.447 344.63C412.878 343.079 371.436 345.794 371.436 345.794Z" fill="#FBD56F"/>
<path opacity="0.1" d="M371.436 345.794L369.343 344.63C369.343 344.63 368.361 348.719 368.683 351.639C368.714 351.931 368.833 352.208 369.025 352.431C369.217 352.655 369.472 352.814 369.757 352.889C374.587 354.091 397.567 359.19 413.377 352.004C413.607 351.9 413.805 351.737 413.952 351.533C414.098 351.329 414.189 351.089 414.215 350.839C414.408 349.047 413.721 345.349 413.447 344.63C412.878 343.079 371.436 345.794 371.436 345.794Z" fill="black"/>
<path d="M391.406 349.605C403.591 349.605 413.469 347.377 413.469 344.63C413.469 341.882 403.591 339.655 391.406 339.655C379.221 339.655 369.343 341.882 369.343 344.63C369.343 347.377 379.221 349.605 391.406 349.605Z" fill="#FBD56F"/>
<path d="M379.814 335.34L377.716 334.175C377.716 334.175 376.733 338.265 377.055 341.184C377.086 341.478 377.205 341.755 377.397 341.979C377.588 342.204 377.844 342.364 378.129 342.44C382.959 343.637 405.939 348.741 421.744 341.549C421.973 341.445 422.172 341.282 422.319 341.078C422.467 340.874 422.559 340.635 422.587 340.385C422.78 338.592 422.093 334.894 421.819 334.175C421.25 332.624 379.814 335.34 379.814 335.34Z" fill="#FBD56F"/>
<path opacity="0.1" d="M379.814 335.34L377.716 334.175C377.716 334.175 376.733 338.265 377.055 341.184C377.086 341.478 377.205 341.755 377.397 341.979C377.588 342.204 377.844 342.364 378.129 342.44C382.959 343.637 405.939 348.741 421.744 341.549C421.973 341.445 422.172 341.282 422.319 341.078C422.467 340.874 422.559 340.635 422.587 340.385C422.78 338.592 422.093 334.894 421.819 334.175C421.25 332.624 379.814 335.34 379.814 335.34Z" fill="black"/>
<path d="M399.778 339.15C411.963 339.15 421.841 336.923 421.841 334.175C421.841 331.428 411.963 329.2 399.778 329.2C387.593 329.2 377.716 331.428 377.716 334.175C377.716 336.923 387.593 339.15 399.778 339.15Z" fill="#FBD56F"/>
<path d="M383.941 322.932L381.848 321.767C381.848 321.767 380.866 325.857 381.188 328.776C381.218 329.07 381.337 329.347 381.529 329.571C381.721 329.796 381.976 329.956 382.261 330.032C387.091 331.229 410.072 336.333 425.882 329.141C426.111 329.037 426.309 328.875 426.456 328.671C426.603 328.466 426.694 328.227 426.719 327.977C426.912 326.184 426.225 322.487 425.952 321.767C425.383 320.216 383.941 322.932 383.941 322.932Z" fill="#FBD56F"/>
<path opacity="0.1" d="M383.941 322.932L381.848 321.767C381.848 321.767 380.866 325.857 381.188 328.776C381.218 329.07 381.337 329.347 381.529 329.571C381.721 329.796 381.976 329.956 382.261 330.032C387.091 331.229 410.072 336.333 425.882 329.141C426.111 329.037 426.309 328.875 426.456 328.671C426.603 328.466 426.694 328.227 426.719 327.977C426.912 326.184 426.225 322.487 425.952 321.767C425.383 320.216 383.941 322.932 383.941 322.932Z" fill="black"/>
<path d="M403.911 326.742C416.095 326.742 425.973 324.515 425.973 321.767C425.973 319.02 416.095 316.792 403.911 316.792C391.726 316.792 381.848 319.02 381.848 321.767C381.848 324.515 391.726 326.742 403.911 326.742Z" fill="#FBD56F"/>
<path d="M219.284 168.735C219.284 157.186 228.306 147.805 239.442 147.805C240.533 147.806 241.623 147.898 242.699 148.079C240.545 147.265 238.262 146.849 235.959 146.85C224.828 146.85 215.807 156.429 215.807 168.247C215.807 177.123 220.9 184.733 228.15 187.975C228.499 187.669 228.934 187.304 229.449 186.902C226.326 185.014 223.747 182.347 221.965 179.162C220.183 175.978 219.259 172.384 219.284 168.735Z" fill="#FBD56F"/>
<path opacity="0.1" d="M219.284 168.735C219.284 157.186 228.306 147.805 239.442 147.805C240.533 147.806 241.623 147.898 242.699 148.079C240.545 147.265 238.262 146.849 235.959 146.85C224.828 146.85 215.807 156.429 215.807 168.247C215.807 177.123 220.9 184.733 228.15 187.975C228.499 187.669 228.934 187.304 229.449 186.902C226.326 185.014 223.747 182.347 221.965 179.162C220.183 175.978 219.259 172.384 219.284 168.735Z" fill="black"/>
<path d="M256.116 168.279C256.115 170.612 255.753 172.931 255.043 175.154C256.267 174.859 257.544 174.617 258.859 174.338C259.347 172.51 259.594 170.627 259.594 168.735C259.594 158.335 252.279 149.716 242.699 148.095C250.519 151.057 256.116 158.968 256.116 168.279Z" fill="#FBD56F"/>
<path d="M219.284 168.735C219.259 172.386 220.183 175.98 221.966 179.166C223.749 182.352 226.33 185.019 229.454 186.907C233.249 183.891 241.615 178.347 255.048 175.138C255.758 172.915 256.12 170.596 256.122 168.263C256.122 158.952 250.524 151.041 242.705 148.095C241.628 147.914 240.539 147.822 239.447 147.821C228.306 147.837 219.284 157.202 219.284 168.735Z" fill="#FBD56F"/>
<path d="M516.918 408.215C513.848 408.107 513.735 406.916 509.791 404.861C507.558 403.701 504.177 400.331 501.655 397.621L501.064 396.982H502.138C502.138 396.982 501.15 388.326 502.03 386.249C502.911 384.172 502.25 371.962 502.25 371.962C502.25 371.962 502.787 362.651 501.81 360.488C500.834 358.326 502.138 344.474 502.138 344.474C502.138 344.474 503.018 336.247 503.211 319.471C503.404 302.694 493.551 302.157 493.551 302.157C493.551 302.157 492.236 302.055 490.24 301.862L489.639 301.803C490.932 299.12 491.689 297.07 491.689 297.07C491.689 297.07 490.041 281.377 489.601 278.673C489.161 275.968 486.537 264.8 486.537 264.8C486.537 264.8 484.674 260.039 483.574 256.685C482.474 253.331 479.19 249.435 479.19 249.435C479.19 249.435 473.286 237.746 471.623 236.018C470.86 235.218 469.787 234.204 468.859 233.335L468.376 232.894C468.627 231.676 468.76 230.436 468.773 229.191C468.773 229.191 462.628 223.127 462.188 221.614C461.748 220.1 455.941 214.471 455.941 214.471C455.941 214.471 452.646 208.411 448.921 208.304C447.158 208.202 445.389 208.254 443.635 208.46C444.402 205.626 445.309 202.658 446.12 200.109C446.211 199.825 446.302 199.572 446.388 199.277C449.368 197.26 451.708 194.431 453.129 191.125C453.204 190.948 453.274 190.771 453.343 190.589H453.462C453.616 190.585 453.77 190.571 453.923 190.546C455.152 190.336 456.193 188.936 455.624 187.862C455.661 187.924 455.714 187.975 455.777 188.01C455.84 188.045 455.912 188.063 455.984 188.061C456.392 188.061 456.891 187.454 456.987 186.934C456.987 186.843 457.014 186.751 457.025 186.66C457.036 186.569 457.063 186.435 457.079 186.322C457.095 186.209 457.079 186.107 457.079 186C457.079 185.893 457.079 185.78 457.079 185.673C457.079 185.565 457.079 185.463 457.079 185.361C457.079 185.259 457.079 185.12 457.079 185.002C457.079 184.884 457.079 184.814 457.079 184.717C457.079 184.621 457.079 184.428 457.046 184.283C457.046 184.224 457.046 184.165 457.046 184.106C456.982 183.515 456.864 182.931 456.692 182.361C456.091 180.349 454.819 178.352 455.308 176.313V176.249C455.716 174.639 457.089 173.512 457.927 172.095C458.007 171.961 458.077 171.821 458.147 171.682C458.147 171.655 458.174 171.628 458.184 171.606C458.238 171.499 458.281 171.392 458.324 171.284L458.41 171.075C458.447 170.984 458.474 170.887 458.506 170.791C458.538 170.694 458.565 170.619 458.587 170.528C458.608 170.437 458.63 170.356 458.651 170.27C458.673 170.184 458.699 170.066 458.721 169.959C458.742 169.852 458.721 169.809 458.758 169.733C458.796 169.658 458.791 169.497 458.801 169.379C458.812 169.261 458.801 169.25 458.801 169.186C458.801 169.122 458.801 168.923 458.801 168.789V168.628C458.801 168.483 458.801 168.333 458.801 168.188C458.801 168.145 458.801 168.102 458.801 168.059C458.801 167.903 458.801 167.748 458.758 167.592C458.758 167.592 458.758 167.549 458.758 167.528C458.573 166.167 458.03 164.881 457.186 163.798C456.226 162.654 455.013 161.749 453.643 161.156C452.272 160.563 450.783 160.297 449.292 160.379C448.468 160.473 447.638 160.489 446.812 160.428C445.433 160.224 444.268 159.354 443.174 158.506L433.986 151.428C432.96 150.54 431.784 149.842 430.513 149.367C429.215 148.97 427.658 149.104 426.698 150.054C424.975 151.75 426.07 154.669 425.383 156.971C424.782 158.968 422.855 160.32 420.864 160.991C418.873 161.662 416.737 161.812 414.687 162.301C414.079 162.398 413.509 162.66 413.039 163.057C412.51 163.703 412.253 164.528 412.32 165.36C412.306 167.399 412.797 169.41 413.748 171.215C414.134 171.945 414.601 172.691 415.014 173.442L415.116 173.63L415.25 173.887C415.32 174.032 415.39 174.172 415.454 174.311L415.535 174.494L415.658 174.8C415.658 174.864 415.707 174.928 415.728 174.987C415.75 175.047 415.803 175.229 415.841 175.347C416.057 176.044 416.077 176.786 415.9 177.494C415.583 178.658 414.676 179.555 413.871 180.462C413.219 181.174 412.755 182.037 412.519 182.973C412.479 183.193 412.479 183.419 412.519 183.639C412.519 183.665 412.519 183.692 412.519 183.719C412.531 183.768 412.545 183.817 412.562 183.864C412.574 183.899 412.588 183.933 412.605 183.966C412.62 184.005 412.638 184.042 412.658 184.079C412.699 184.137 412.746 184.191 412.798 184.24L412.878 184.299C412.922 184.332 412.969 184.36 413.018 184.385L413.109 184.428L413.335 184.487H413.399C413.517 184.495 413.635 184.495 413.753 184.487H413.86C413.972 184.479 414.083 184.465 414.193 184.444H414.317C414.498 184.41 414.677 184.365 414.853 184.309C415.47 184.125 416.069 183.888 416.646 183.601C416.646 183.666 416.646 183.735 416.646 183.8C416.646 183.864 416.646 184.03 416.646 184.143C416.676 186.266 417.078 188.368 417.832 190.352C419.008 193.445 420.979 196.172 423.547 198.258C423.515 198.44 423.483 198.628 423.445 198.821C422.909 201.413 421.809 204.016 421.127 203.818C420.46 203.667 419.777 203.591 419.093 203.592H418.497C417.877 203.522 417.25 203.522 416.63 203.592C416.353 203.613 416.075 203.574 415.814 203.479C414.042 202.92 412.158 202.815 410.335 203.174C406.546 203.952 400.776 205.374 399.193 207.075C396.778 209.673 393.29 212.163 389.324 222.982C389.324 222.982 387.349 229.583 385.814 230.453C386.152 230.276 386.5 230.118 386.855 229.98C386.651 230.338 386.371 230.645 386.034 230.882C386.589 230.598 387.165 230.358 387.757 230.163C386.56 237.215 388.336 257.383 388.336 257.383C388.336 257.383 386.909 260.86 388.771 262.921C389.882 264.14 390.483 266.045 390.794 267.397L390.521 267.816C389.533 269.345 388.213 271.342 387.349 272.442C385.814 274.39 386.249 280.562 386.249 280.562C386.249 280.562 385.921 283.481 384.826 284.565C383.732 285.649 383.946 289.653 383.946 289.653L381.14 300.22C381.14 300.22 378.504 302.598 378.504 303.682C378.504 304.766 376.422 307.793 376.422 307.793C376.422 307.793 373.24 312.988 376.422 312.231C377.585 311.895 378.676 311.349 379.642 310.621V310.701C379.642 310.889 379.642 311.082 379.642 311.281C379.551 316.937 380.179 324.902 384.343 324.902C390.784 324.902 407.485 332.581 407.485 332.581C410.882 335.179 415.487 334.315 415.487 334.315C415.487 334.315 407.335 342.413 407.571 345.773C407.807 349.132 402.966 354.644 402.966 354.644L388.046 383.759C388.13 385.788 388.491 387.796 389.12 389.726L388.905 389.909C383.173 395.147 382.674 405.51 382.674 405.51L381.36 410.812L401.318 419.581C401.318 419.581 427.202 420.118 431.699 418.932C436.197 417.746 435.209 412.76 429.284 411.789C423.36 410.818 421.937 408.215 419.962 407.029C418.631 406.224 413.903 401.034 410.968 397.744C410.925 397.691 410.882 397.648 410.839 397.599L411.521 393.843C412.835 393.193 414.81 386.7 414.81 386.7C414.81 386.7 414.81 384.102 416.125 383.345C417.44 382.589 420.182 374.796 420.182 374.796C420.182 374.796 426.086 364.948 425.78 363.649C425.474 362.351 430.073 355.75 430.073 355.75C430.073 355.75 437.86 348.172 437.528 346.819C437.195 345.467 443.78 338.539 443.78 338.539C446.158 336.725 448.14 334.444 449.603 331.835L451.503 331.524C460.116 330.113 474.424 327.564 476.023 326.85C478.218 325.878 477.778 330.209 476.903 333.886C476.029 337.562 475.368 355.208 476.367 357.499C477.365 359.791 476.903 363.456 476.903 363.456L475.589 383.259L476.463 387.483C476.463 387.483 473.501 389.861 474.708 391.267C475.916 392.673 474.821 398.737 474.821 398.737C474.923 398.7 475.046 398.662 475.181 398.624C475.079 398.861 474.977 399.107 474.885 399.36C473.184 404.19 474.161 412.154 474.161 412.154V418.433C474.161 418.433 504.542 418.97 511.229 418.97C517.916 418.97 527.136 415.723 527.683 413.125C528.231 410.528 519.987 408.327 516.918 408.215ZM430.513 295.551L428.528 295.717C429.184 295.62 429.845 295.564 430.508 295.551H430.513ZM442.648 212.479C442.927 211.224 443.265 209.882 443.64 208.497L442.648 212.479ZM446.404 298.583C444.507 299.331 442.398 299.331 440.501 298.583C440.501 298.583 440.608 291.011 441.488 287.85C442.369 284.689 443.571 278.973 443.571 278.973C443.571 278.973 444.558 271.073 445.546 267.499C446.533 263.925 450.376 244.014 452.345 242.716C454.315 241.417 455.415 243.692 455.415 243.692C455.415 243.692 455.71 243.692 456.204 243.633C456.301 243.837 456.403 244.063 456.521 244.293C458.86 249.021 465.724 258.735 465.724 258.735C467.762 259.992 469.487 261.695 470.769 263.716C472.637 266.85 473.184 274.213 473.184 274.213C473.184 274.213 477.354 290.555 479.324 292.825C480.311 293.962 479.86 294.639 479.19 295.03C477.788 295.802 476.599 296.908 475.728 298.25C475.449 298.696 475.148 299.184 474.848 299.71C474.091 299.533 473.42 299.351 472.857 299.174C467.442 297.354 449.356 297.284 446.399 298.61L446.404 298.583Z" fill="url(#paint0_linear)"/>
<path d="M473.426 412.175V418.401C473.426 418.401 503.152 418.937 509.7 418.937C516.247 418.937 525.263 415.717 525.8 413.141C526.336 410.565 518.286 408.419 515.281 408.311C512.276 408.204 512.168 407.023 508.304 404.984C506.125 403.835 502.814 400.492 500.345 397.803C498.44 395.726 497.034 394.047 497.034 394.047C497.034 394.047 481.047 393.725 476.431 396.301C475.358 396.891 474.633 398.055 474.134 399.521C472.47 404.297 473.426 412.175 473.426 412.175Z" fill="#434175"/>
<path opacity="0.1" d="M474.134 399.505C477.488 398.34 497.114 397.894 500.345 397.819C498.44 395.742 497.034 394.063 497.034 394.063C497.034 394.063 481.047 393.741 476.431 396.317C475.369 396.886 474.633 398.05 474.134 399.505Z" fill="black"/>
<path d="M387.891 300.22L389.624 301.293L390.274 301.685L392.796 303.209C406.288 311.335 443.077 333.37 445.095 333.193C445.631 333.15 447.209 332.909 449.388 332.555L451.25 332.249C459.676 330.848 473.678 328.32 475.245 327.612C477.392 326.646 476.962 330.939 476.104 334.589C475.245 338.238 474.601 355.733 475.567 357.988C476.533 360.242 476.104 363.891 476.104 363.891L474.816 383.533L475.674 387.719C475.674 387.719 472.776 390.081 473.957 391.476C475.138 392.871 474.064 398.882 474.064 398.882C477.499 397.594 500.785 397.165 500.785 397.165C500.785 397.165 499.819 388.578 500.678 386.539C501.537 384.499 500.893 372.37 500.893 372.37C500.893 372.37 501.429 363.14 500.463 360.993C499.497 358.846 500.785 345.113 500.785 345.113C500.785 345.113 501.644 336.955 501.859 320.324C502.073 303.692 492.413 303.15 492.413 303.15C492.413 303.15 491.125 303.048 489.193 302.86C485.367 302.496 478.996 301.787 474.735 300.864C473.863 300.686 473.001 300.459 472.154 300.182C466.894 298.39 449.184 298.32 446.292 299.608C444.435 300.351 442.363 300.351 440.506 299.608L438.252 295.959L416.726 297.794L414.445 297.987L393.252 299.796L391.792 299.919L387.891 300.22Z" fill="#565387"/>
<path opacity="0.1" d="M474.177 316.707C480.429 319.755 486.397 308.946 489.204 302.85C485.377 302.485 479.007 301.776 474.746 300.853C471.918 305.555 468.182 313.782 474.177 316.707Z" fill="black"/>
<path d="M455.394 243.682C455.527 244.42 455.783 245.131 456.15 245.785C458.442 250.47 465.161 260.104 465.161 260.104C467.16 261.354 468.848 263.043 470.098 265.041C471.923 268.154 472.46 275.453 472.46 275.453C472.46 275.453 476.538 291.655 478.47 293.909C479.436 295.036 479.007 295.707 478.336 296.098C476.965 296.861 475.803 297.948 474.95 299.265C472.132 303.794 467.64 312.767 473.962 315.848C482.549 320.034 490.599 298.095 490.599 298.095C490.599 298.095 488.989 282.531 488.56 279.848C488.131 277.165 485.56 266.109 485.56 266.109C485.56 266.109 483.735 261.386 482.662 258.059C481.589 254.732 478.369 250.868 478.369 250.868C478.369 250.868 472.572 239.281 470.962 237.564C470.216 236.764 469.17 235.76 468.279 234.912C467.206 233.93 466.369 233.163 466.369 233.163C466.369 233.163 455.286 241.111 455.394 243.682Z" fill="#EE8E9E"/>
<path d="M382.648 410.887L402.182 419.581C402.182 419.581 427.508 420.118 431.909 418.937C436.309 417.757 435.343 412.819 429.547 411.853C423.751 410.887 422.356 408.311 420.424 407.131C419.12 406.336 414.494 401.19 411.623 397.927C410.238 396.354 409.261 395.243 409.261 395.243C409.261 395.243 405.504 385.261 395.098 387.515C393.196 387.93 391.444 388.858 390.032 390.199C384.424 395.388 383.936 405.665 383.936 405.665L382.648 410.887Z" fill="#434175"/>
<path opacity="0.1" d="M390.274 301.68L392.796 303.204C406.288 311.329 443.077 333.365 445.095 333.188C445.632 333.145 447.209 332.903 449.388 332.549L451.251 332.243L451.32 332.12C452.405 330.233 453.232 328.21 453.778 326.104C456.038 317.522 444.902 310.953 444.902 310.953L442.54 309.118C439.857 304.599 420.537 300.327 420.537 300.327L418.047 298.653L416.721 297.762L416.367 297.526L413.345 295.497L398.216 296.571L393.719 299.458L393.247 299.764L391.578 300.837L390.274 301.68Z" fill="black"/>
<path opacity="0.1" d="M390.016 390.161C394.122 404.367 411.284 399.73 411.284 399.73L411.606 397.927C410.222 396.354 409.245 395.243 409.245 395.243C409.245 395.243 405.488 385.261 395.082 387.515C393.184 387.919 391.432 388.834 390.016 390.161Z" fill="black"/>
<path d="M385.53 325.674C391.862 325.674 408.172 333.295 408.172 333.295C411.499 335.871 416.007 335.013 416.007 335.013C416.007 335.013 408.064 343.063 408.279 346.39C408.494 349.717 403.776 355.191 403.776 355.191L389.179 384.059C390.252 404.555 411.284 398.871 411.284 398.871L412.143 394.041C413.431 393.397 415.363 386.957 415.363 386.957C415.363 386.957 415.363 384.381 416.651 383.63C417.939 382.878 420.623 375.15 420.623 375.15C420.623 375.15 426.419 365.383 426.097 364.095C425.775 362.807 430.283 356.265 430.283 356.265C430.283 356.265 437.903 348.751 437.581 347.41C437.259 346.068 443.699 339.199 443.699 339.199C446.029 337.392 447.967 335.129 449.394 332.549C450.489 330.659 451.325 328.63 451.878 326.517C453.698 319.605 446.812 314.013 444.059 312.102C443.394 311.635 442.986 311.388 442.986 311.388L440.624 309.553C439.406 307.497 434.721 305.49 430.02 303.918C426.617 302.785 423.182 301.873 420.987 301.326C419.496 300.982 418.605 300.757 418.605 300.757L416.114 299.082L415.24 298.497L414.44 297.961L411.392 295.927L404.662 296.404L396.263 297L391.771 299.909L389.624 301.293L381.236 306.66C381.236 306.66 381.016 308.726 380.946 311.49C380.946 311.705 380.946 311.92 380.946 312.145C380.844 317.78 381.445 325.674 385.53 325.674Z" fill="#565387"/>
<path d="M417.832 205.476L420.086 213.526C420.086 213.526 424.057 227.372 424.487 228.338C424.916 229.304 435.327 239.072 435.757 239.286C436.186 239.501 441.853 242.716 441.853 242.716C441.853 242.716 442.304 225.005 441.853 219.859C441.816 218.726 441.909 217.594 442.132 216.483C442.814 212.447 444.547 206.528 445.986 201.966C447.188 198.15 448.181 195.284 448.181 195.284C448.181 195.284 423.07 194.211 423.928 196.68C424.25 197.614 424.148 199.17 423.832 200.737C423.295 203.308 422.222 205.894 421.567 205.691C420.914 205.544 420.246 205.471 419.576 205.47C418.674 205.444 417.832 205.476 417.832 205.476Z" fill="#EE8E9E"/>
<path opacity="0.1" d="M423.853 200.737C426.922 203.298 430.735 204.802 434.727 205.023C438.718 205.244 442.674 204.172 446.007 201.966C447.209 198.15 448.202 195.284 448.202 195.284C448.202 195.284 423.091 194.211 423.95 196.68C424.272 197.614 424.17 199.17 423.853 200.737Z" fill="black"/>
<path d="M454.326 185.844C454.327 187.814 454.013 189.77 453.397 191.64C453.242 192.123 453.063 192.598 452.861 193.063C451.415 196.486 448.975 199.398 445.857 201.42C442.739 203.442 439.085 204.482 435.37 204.405C431.654 204.328 428.047 203.138 425.015 200.989C421.983 198.839 419.666 195.83 418.363 192.349C417.626 190.379 417.234 188.296 417.204 186.193C417.204 186.081 417.204 185.962 417.204 185.85C417.162 183.385 417.611 180.937 418.526 178.647C419.44 176.358 420.801 174.274 422.529 172.516C424.257 170.758 426.318 169.362 428.591 168.409C430.865 167.456 433.305 166.965 435.77 166.965C438.235 166.965 440.676 167.456 442.949 168.409C445.222 169.362 447.283 170.758 449.011 172.516C450.74 174.274 452.101 176.358 453.015 178.647C453.929 180.937 454.378 183.385 454.336 185.85L454.326 185.844Z" fill="#EE8E9E"/>
<path opacity="0.1" d="M417.832 205.476L420.086 213.526C420.086 213.526 424.057 227.372 424.487 228.338C424.916 229.304 435.327 239.072 435.757 239.286C436.186 239.501 441.853 242.716 441.853 242.716C441.853 242.716 442.304 225.005 441.853 219.859C441.816 218.726 441.909 217.594 442.132 216.483L440.673 222.435L440.78 234.349L441.639 234.993L439.707 237.891V235.744C439.707 235.744 432.837 229.089 431.764 226.299C430.691 223.508 426.826 218.453 426.826 218.453C426.826 218.453 422.426 211.057 422.318 209.769C422.238 208.766 420.386 206.442 419.576 205.476C418.674 205.444 417.832 205.476 417.832 205.476Z" fill="black"/>
<path opacity="0.1" d="M455.394 243.682C455.527 244.42 455.783 245.131 456.15 245.785C458.501 245.544 466.492 244.052 468.252 234.918C467.179 233.936 466.342 233.168 466.342 233.168C466.342 233.168 455.286 241.111 455.394 243.682Z" fill="black"/>
<path opacity="0.1" d="M380.93 312.172C383.077 310.637 385.159 308.549 386.388 307.97C388.213 307.111 391.004 304.32 391.004 304.32C391.004 304.32 391.712 303.837 392.796 303.204C394.787 302.034 398.055 300.344 400.556 300.134C402.794 299.946 410.216 299.469 416.12 299.104L423.762 298.631C423.762 298.631 430.739 296.163 433.744 297.773C435.897 298.851 438.165 299.679 440.506 300.242C440.506 300.242 440.506 300.005 440.506 299.603L438.252 295.954L414.445 297.982L411.392 295.927L396.263 297L391.771 299.909L387.896 300.242L389.63 301.315L381.241 306.682C381.241 306.682 380.979 309.081 380.93 312.172Z" fill="black"/>
<path d="M377.818 313.1C378.955 312.76 380.021 312.214 380.962 311.49C383.109 309.961 385.175 307.873 386.404 307.299C388.229 306.44 391.02 303.649 391.02 303.649C391.02 303.649 396.708 299.785 400.572 299.463C401.646 299.377 403.825 299.222 406.476 299.05C409.127 298.878 412.379 298.669 415.234 298.513L419.785 298.229L423.751 297.982C423.751 297.982 430.728 295.513 433.733 297.123C435.886 298.202 438.155 299.03 440.496 299.592C440.496 299.592 440.603 292.079 441.462 288.966C442.32 285.853 443.501 280.17 443.501 280.17C443.501 280.17 444.467 272.335 445.433 268.792C446.399 265.25 450.15 245.501 452.082 244.213C454.014 242.925 455.088 245.179 455.088 245.179C455.088 245.179 467.968 244.964 468.182 230.801C468.182 230.801 462.172 224.791 461.742 223.288C461.313 221.785 455.624 216.204 455.624 216.204C455.624 216.204 452.404 210.193 448.755 210.086C447.031 209.987 445.301 210.04 443.587 210.247L440.496 222.859L440.603 234.773L441.462 235.417L439.53 238.315V236.168C439.53 236.168 432.66 229.513 431.587 226.723C430.513 223.932 426.649 218.877 426.649 218.877C426.649 218.877 422.249 211.481 422.141 210.193C422.034 208.905 419.029 205.454 419.029 205.454C418.422 205.384 417.81 205.384 417.204 205.454C416.932 205.475 416.66 205.436 416.404 205.342C414.67 204.786 412.823 204.683 411.038 205.041C407.329 205.809 401.683 207.22 400.138 208.905C397.776 211.481 394.342 213.95 390.478 224.683L411.295 232.197L409.481 235.589L392.914 267.081C392.914 267.081 392.377 267.977 391.621 269.147C390.655 270.665 389.361 272.646 388.513 273.735C387.011 275.667 387.44 281.785 387.44 281.785C387.44 281.785 387.118 284.683 386.045 285.757C384.971 286.83 385.186 290.801 385.186 290.801L382.395 301.213C382.395 301.213 379.819 303.574 379.819 304.648C379.819 305.721 377.78 308.726 377.78 308.726C377.78 308.726 374.689 313.873 377.818 313.1Z" fill="#434175"/>
<path opacity="0.1" d="M487.696 320.85C487.696 320.85 480.939 323.098 479.109 326.318C477.279 329.538 487.696 320.85 487.696 320.85Z" fill="black"/>
<path opacity="0.1" d="M484.267 313.766C484.052 314.088 475.004 323.163 475.572 325.352C476.141 327.542 484.267 313.766 484.267 313.766Z" fill="black"/>
<path opacity="0.1" d="M434.576 320.206C434.576 320.206 424.508 324.961 423.628 327.054C422.748 329.147 434.576 320.206 434.576 320.206Z" fill="black"/>
<path opacity="0.1" d="M433.932 326.318C433.932 326.318 424.809 330.182 423.585 331.148C422.361 332.114 433.932 326.318 433.932 326.318Z" fill="black"/>
<path opacity="0.1" d="M429.746 334.567C429.746 334.567 425.716 337.572 423.488 335.211C421.261 332.85 429.746 334.567 429.746 334.567Z" fill="black"/>
<path opacity="0.1" d="M444.902 256.24C444.687 256.562 431.27 280.712 427.728 282.537C424.186 284.361 444.902 256.24 444.902 256.24Z" fill="black"/>
<path opacity="0.1" d="M444.236 265.363C444.236 265.9 431.141 293.909 428.995 294.231C426.848 294.553 444.236 265.363 444.236 265.363Z" fill="black"/>
<path opacity="0.1" d="M394.454 283.39C394.454 283.39 388.132 296.898 385.653 297.665C383.174 298.433 394.454 283.39 394.454 283.39Z" fill="black"/>
<path opacity="0.1" d="M393.381 277.385C393.381 277.385 391.202 282.102 389.877 282.102C388.551 282.102 393.381 277.385 393.381 277.385Z" fill="black"/>
<path opacity="0.1" d="M454.326 185.844C454.327 187.813 454.013 189.77 453.397 191.64C453.242 192.123 453.063 192.598 452.861 193.063C451.911 192.916 451.017 192.522 450.268 191.92C449.472 191.38 448.806 190.668 448.32 189.837C447.954 188.952 447.637 188.047 447.37 187.127C446.942 186.088 446.244 185.183 445.349 184.505C444.453 183.826 443.393 183.4 442.277 183.268C442.894 184.342 441.912 185.764 440.705 185.952C439.497 186.14 438.322 185.415 437.485 184.519C436.648 183.623 436.052 182.533 435.225 181.637C434.399 180.741 433.218 180.027 432.005 180.204C430.932 180.365 430.111 181.181 429.215 181.787C428.318 182.394 427.068 182.801 426.209 182.152C425.726 181.792 425.49 181.181 425.029 180.789C423.843 179.796 421.996 180.821 421.122 182.104C419.775 184.089 418.975 185.292 417.204 186.188C417.204 186.075 417.204 185.957 417.204 185.844C417.162 183.38 417.611 180.931 418.526 178.642C419.44 176.353 420.801 174.268 422.529 172.511C424.257 170.753 426.318 169.357 428.591 168.404C430.865 167.451 433.305 166.96 435.77 166.96C438.235 166.96 440.676 167.451 442.949 168.404C445.222 169.357 447.283 170.753 449.011 172.511C450.74 174.268 452.101 176.353 453.015 178.642C453.929 180.931 454.378 183.38 454.336 185.844H454.326Z" fill="black"/>
<path d="M421.122 181.567C421.996 180.279 423.843 179.254 425.029 180.252C425.49 180.639 425.726 181.25 426.209 181.615C427.068 182.265 428.324 181.857 429.215 181.25C430.106 180.644 430.937 179.828 432.005 179.667C433.213 179.479 434.388 180.204 435.225 181.1C436.063 181.996 436.653 183.086 437.485 183.982C438.317 184.878 439.492 185.592 440.705 185.41C441.918 185.227 442.894 183.8 442.277 182.726C443.392 182.857 444.452 183.284 445.347 183.963C446.241 184.641 446.938 185.547 447.365 186.585C447.634 187.504 447.951 188.409 448.315 189.295C448.803 190.125 449.47 190.834 450.268 191.372C451.25 192.097 452.447 192.703 453.649 192.494C454.851 192.284 455.871 190.884 455.313 189.81C455.694 190.395 456.521 189.58 456.644 188.893C456.917 187.384 456.833 185.833 456.397 184.363C455.807 182.367 454.562 180.392 455.039 178.363C455.42 176.753 456.789 175.61 457.621 174.188C459.097 171.665 458.694 168.284 456.912 165.966C455.98 164.835 454.795 163.939 453.452 163.351C452.11 162.763 450.648 162.498 449.184 162.58C448.379 162.669 447.567 162.683 446.758 162.623C445.411 162.424 444.268 161.549 443.195 160.717L434.195 153.708C433.196 152.825 432.045 152.131 430.798 151.658C429.531 151.267 428.007 151.401 427.041 152.34C425.356 154.025 426.424 156.923 425.748 159.204C425.163 161.179 423.279 162.521 421.331 163.186C419.383 163.852 417.295 164.002 415.288 164.485C414.693 164.584 414.136 164.843 413.678 165.236C413.159 165.88 412.907 166.698 412.975 167.522C412.961 169.541 413.44 171.532 414.37 173.324C415.411 175.326 417.054 177.381 416.479 179.565C416.168 180.719 415.277 181.605 414.494 182.506C412.798 184.46 412.224 187.336 415.422 186.338C418.519 185.372 419.383 184.122 421.122 181.567Z" fill="#434175"/>
<g opacity="0.1">
<path opacity="0.1" d="M456.639 186.794C456.51 187.481 455.689 188.297 455.302 187.712C455.839 188.785 454.841 190.175 453.639 190.395C452.437 190.615 451.245 189.993 450.258 189.274C449.461 188.734 448.795 188.022 448.309 187.191C447.859 186.349 447.714 185.372 447.36 184.481C446.93 183.443 446.232 182.539 445.337 181.86C444.442 181.182 443.382 180.755 442.267 180.623C442.889 181.696 441.902 183.123 440.694 183.306C439.487 183.488 438.311 182.769 437.474 181.873C436.637 180.977 436.041 179.893 435.215 178.991C434.388 178.089 433.208 177.381 431.995 177.558C430.921 177.725 430.1 178.535 429.204 179.141C428.308 179.748 427.057 180.161 426.199 179.512C425.716 179.147 425.485 178.535 425.023 178.148C423.832 177.15 421.986 178.175 421.111 179.458C419.377 182.013 418.513 183.274 415.433 184.245C414.424 184.562 413.791 184.492 413.447 184.186C412.776 185.737 413.082 187.1 415.433 186.36C418.513 185.388 419.377 184.132 421.111 181.578C421.986 180.29 423.832 179.265 425.023 180.263C425.485 180.649 425.716 181.261 426.199 181.626C427.063 182.275 428.313 181.868 429.204 181.261C430.095 180.655 430.927 179.839 431.995 179.678C433.202 179.49 434.377 180.215 435.215 181.111C436.052 182.007 436.642 183.097 437.474 183.993C438.306 184.889 439.481 185.603 440.694 185.42C441.907 185.238 442.889 183.81 442.267 182.737C443.383 182.867 444.443 183.294 445.339 183.972C446.235 184.651 446.932 185.557 447.36 186.596C447.626 187.516 447.943 188.421 448.309 189.306C448.796 190.135 449.461 190.845 450.258 191.383C451.245 192.107 452.437 192.714 453.639 192.504C454.841 192.295 455.86 190.894 455.302 189.821C455.689 190.406 456.51 189.59 456.639 188.903C456.805 187.977 456.837 187.032 456.735 186.097C456.717 186.329 456.685 186.562 456.639 186.794Z" fill="black"/>
<path opacity="0.1" d="M416.458 177.542C416.458 177.51 416.458 177.488 416.485 177.456C417.07 175.277 415.411 173.222 414.376 171.22C413.646 169.807 413.194 168.268 413.045 166.685C413.005 166.966 412.983 167.249 412.98 167.533C412.969 169.551 413.448 171.542 414.376 173.335C415.106 174.703 416.098 176.098 416.458 177.542Z" fill="black"/>
<path opacity="0.1" d="M457.61 172.089C456.778 173.512 455.41 174.66 455.029 176.265C454.876 176.941 454.876 177.644 455.029 178.32C455.426 176.748 456.767 175.61 457.589 174.204C458.369 172.831 458.66 171.234 458.415 169.674C458.309 170.525 458.035 171.345 457.61 172.089Z" fill="black"/>
</g>
<path opacity="0.1" d="M391.642 269.147C391.783 269.74 391.893 270.34 391.97 270.945C391.97 270.945 400.449 290.801 401.522 291.977C401.85 292.342 403.095 294.123 404.662 296.426L406.46 299.077C409.68 303.907 413.324 309.365 413.324 309.365L421.288 316.32C421.288 316.32 438.563 317.7 444.054 312.097C443.388 311.63 442.98 311.383 442.98 311.383L440.619 309.547C439.401 307.492 434.716 305.485 430.014 303.912C425.667 303.945 422.109 304.299 422.109 304.299L420.982 301.32L419.801 298.213L413.775 282.424C413.775 282.424 409.9 262.465 408.612 261.494C407.324 260.522 407.651 257.522 407.651 257.522C407.651 257.522 410.007 249.043 409.148 247.862C408.29 246.682 410.544 237.993 410.544 237.993C410.323 237.143 409.975 236.33 409.513 235.583L392.946 267.075C392.946 267.075 392.383 267.977 391.642 269.147Z" fill="black"/>
<path d="M410.748 237.354C410.748 237.354 408.494 246.043 409.352 247.224C410.211 248.404 407.85 256.884 407.85 256.884C407.85 256.884 407.533 259.889 408.816 260.855C410.098 261.821 413.979 281.785 413.979 281.785L422.292 303.682C422.292 303.682 448.309 301.106 445.631 309.263C442.953 317.42 421.481 315.703 421.481 315.703L413.538 308.726C413.538 308.726 402.805 292.519 401.732 291.338C400.658 290.157 392.179 270.306 392.179 270.306C392.179 270.306 391.75 266.335 389.925 264.295C388.1 262.256 389.496 258.805 389.496 258.805C389.496 258.805 387.242 232.852 389.603 229.739C391.964 226.626 408.279 228.016 410.748 237.354Z" fill="#EE8E9E"/>
<path opacity="0.1" d="M397.444 221.039L390.682 225.118C390.682 225.118 388.75 231.665 387.247 232.524C387.247 232.524 400.771 225.011 410.962 242.286C410.962 242.286 410.64 240.038 412.036 238.964C413.431 237.891 413.109 233.276 413.109 233.276C413.48 232.546 413.803 231.793 414.075 231.021C415.041 228.66 410.018 215.136 397.444 221.039Z" fill="black"/>
<path d="M397.229 220.61L390.467 224.689C390.467 224.689 388.535 231.236 387.032 232.095C387.032 232.095 400.556 224.581 410.748 241.857C410.748 241.857 410.426 239.608 411.821 238.535C413.216 237.462 412.894 232.846 412.894 232.846C413.266 232.117 413.588 231.364 413.86 230.592C414.848 228.231 409.782 214.707 397.229 220.61Z" fill="#434175"/>
<path d="M336.966 408.558C348.099 408.558 357.123 398.978 357.123 387.161C357.123 375.344 348.099 365.764 336.966 365.764C325.833 365.764 316.809 375.344 316.809 387.161C316.809 398.978 325.833 408.558 336.966 408.558Z" fill="#FBD56F"/>
<path opacity="0.1" d="M336.966 408.558C348.099 408.558 357.123 398.978 357.123 387.161C357.123 375.344 348.099 365.764 336.966 365.764C325.833 365.764 316.809 375.344 316.809 387.161C316.809 398.978 325.833 408.558 336.966 408.558Z" fill="black"/>
<path d="M340.444 408.558C351.576 408.558 360.601 399.192 360.601 387.639C360.601 376.085 351.576 366.719 340.444 366.719C329.311 366.719 320.286 376.085 320.286 387.639C320.286 399.192 329.311 408.558 340.444 408.558Z" fill="#FBD56F"/>
<path d="M48.3757 398.92C62.1255 398.92 73.2719 397.036 73.2719 394.712C73.2719 392.388 62.1255 390.505 48.3757 390.505C34.6259 390.505 23.4794 392.388 23.4794 394.712C23.4794 397.036 34.6259 398.92 48.3757 398.92Z" fill="#FFBC31"/>
<path d="M58.6691 387.826C59.7424 386.834 60.7352 385.68 61.0465 384.242C61.3578 382.803 60.746 381.118 59.3882 380.598C57.864 380.013 56.2326 381.07 54.9982 382.138C53.7639 383.206 52.3524 384.419 50.737 384.193C51.568 383.44 52.1897 382.485 52.5415 381.42C52.8933 380.356 52.9631 379.218 52.7442 378.118C52.6804 377.666 52.4949 377.239 52.2075 376.884C51.3649 375.982 49.8301 376.347 48.8158 377.082C45.5957 379.347 44.6995 383.721 44.6834 387.655C44.356 386.233 44.6297 384.757 44.6243 383.297C44.619 381.837 44.2165 380.227 43.0143 379.444C42.248 379.034 41.3875 378.832 40.5188 378.859C39.0698 378.805 37.4598 378.95 36.4723 380.007C35.2433 381.327 35.5599 383.533 36.6279 384.982C37.6959 386.431 39.3113 387.333 40.8193 388.336C42.0184 389.052 43.0417 390.028 43.814 391.191C43.906 391.362 43.9798 391.542 44.034 391.728H53.1091C55.1299 390.684 57.0001 389.372 58.6691 387.826Z" fill="#FFBC31"/>
<path d="M227.726 160.776L248.077 150.58L255.59 157.465L257.378 162.386L259.256 170.657L257.603 174.279L244.589 176.651C244.589 176.651 237.655 176.249 236.581 176.785C235.508 177.322 231.129 178.25 231.129 178.25L227.726 169.873V160.776Z" fill="#FBD56F"/>
<defs>
<linearGradient id="paint0_linear" x1="451.352" y1="419.705" x2="451.352" y2="149.2" gradientUnits="userSpaceOnUse">
<stop stop-color="#808080" stop-opacity="0.25"/>
<stop offset="0.54" stop-color="#808080" stop-opacity="0.12"/>
<stop offset="1" stop-color="#808080" stop-opacity="0.1"/>
</linearGradient>
</defs>
</svg>
